# xmcd CD database file
#
# Track frame offsets:
#	150
#	13580
#	27882
#	41777
#
# Disc length: 753 seconds
#
# Revision: 2
# Processed by: cddbd v1.5.2PL0 Copyright (c) Steve Scherf et al.
# Submitted via: CDex 1.51
#
DISCID=2802ef04
DTITLE=Eric Clapton - Motherless Child
DYEAR=1994
DGENRE=Blues
TTITLE0=Motherless Child
TTITLE1=Driftin'
TTITLE2=County Jail (Live - Previously Unreleased)
TTITLE3=32-20 (Live - Previously Unreleased)
EXTD=YEAR: 1994
EXTT0=
EXTT1=
EXTT2=
EXTT3=
PLAYORDER=
